<svg width="120" height="120" viewBox="0 0 120 120" fill="none" xmlns="http://www.w3.org/2000/svg">
<circle cx="60" cy="60" r="60" fill="white"/>
<path d="M70.5 55.5C69.5333 55.5 68.7083 55.1583 68.025 54.475C67.3417 53.7917 67 52.9667 67 52V44C67 43.0333 67.3417 42.2083 68.025 41.525C68.7083 40.8417 69.5333 40.5 70.5 40.5C71.4667 40.5 72.2917 40.8417 72.975 41.525C73.6583 42.2083 74 43.0333 74 44V52C74 52.9667 73.6583 53.7917 72.975 54.475C72.2917 55.1583 71.4667 55.5 70.5 55.5ZM45 80C44.1667 80 43.4583 79.7083 42.875 79.125C42.2917 78.5417 42 77.8333 42 77V43C42 42.1667 42.2917 41.4583 42.875 40.875C43.4583 40.2917 44.1667 40 45 40H62V43H45V77H69V71.5H72V77C72 77.8333 71.7083 78.5417 71.125 79.125C70.5417 79.7083 69.8333 80 69 80H45ZM50 71.5V68.5H64V71.5H50ZM50 65.5V62.5H60V65.5H50ZM72 67.5H69V62.4C66.4667 62.0333 64.3333 60.8667 62.6 58.9C60.8667 56.9333 60 54.6333 60 52H63C63 54.0667 63.7333 55.8333 65.2 57.3C66.6667 58.7667 68.4333 59.5 70.5 59.5C72.6 59.5 74.375 58.7667 75.825 57.3C77.275 55.8333 78 54.0667 78 52H81C81 54.6333 80.1417 56.9333 78.425 58.9C76.7083 60.8667 74.5667 62.0333 72 62.4V67.5Z" fill="#B39DDB"/>
</svg>
