<svg width="120" height="120" viewBox="0 0 120 120" fill="none" xmlns="http://www.w3.org/2000/svg">
<circle cx="60" cy="60" r="60" fill="white"/>
<g clip-path="url(#clip0_42_94)">
<path d="M41.5 76.5C40.5333 76.5 39.7083 76.1583 39.025 75.475C38.3417 74.7917 38 73.9667 38 73C38 72.0333 38.3417 71.2083 39.025 70.525C39.7083 69.8417 40.5333 69.5 41.5 69.5C41.6667 69.5 41.8333 69.5083 42 69.525C42.1667 69.5417 42.3833 69.5833 42.65 69.65L52.65 59.65C52.5833 59.3833 52.5417 59.1667 52.525 59C52.5083 58.8333 52.5 58.6667 52.5 58.5C52.5 57.5333 52.8417 56.7083 53.525 56.025C54.2083 55.3417 55.0333 55 56 55C56.9667 55 57.7917 55.3417 58.475 56.025C59.1583 56.7083 59.5 57.5333 59.5 58.5C59.5 58.5667 59.45 58.95 59.35 59.65L64.85 65.15C65.1167 65.0833 65.3333 65.0417 65.5 65.025C65.6667 65.0083 65.8333 65 66 65C66.1667 65 66.3333 65.0083 66.5 65.025C66.6667 65.0417 66.8833 65.0833 67.15 65.15L75.15 57.15C75.0833 56.8833 75.0417 56.6667 75.025 56.5C75.0083 56.3333 75 56.1667 75 56C75 55.0333 75.3417 54.2083 76.025 53.525C76.7083 52.8417 77.5333 52.5 78.5 52.5C79.4667 52.5 80.2917 52.8417 80.975 53.525C81.6583 54.2083 82 55.0333 82 56C82 56.9667 81.6583 57.7917 80.975 58.475C80.2917 59.1583 79.4667 59.5 78.5 59.5C78.3333 59.5 78.1667 59.4917 78 59.475C77.8333 59.4583 77.6167 59.4167 77.35 59.35L69.35 67.35C69.4167 67.6167 69.4583 67.8333 69.475 68C69.4917 68.1667 69.5 68.3333 69.5 68.5C69.5 69.4667 69.1583 70.2917 68.475 70.975C67.7917 71.6583 66.9667 72 66 72C65.0333 72 64.2083 71.6583 63.525 70.975C62.8417 70.2917 62.5 69.4667 62.5 68.5C62.5 68.3333 62.5083 68.1667 62.525 68C62.5417 67.8333 62.5833 67.6167 62.65 67.35L57.15 61.85C56.8833 61.9167 56.6667 61.9583 56.5 61.975C56.3333 61.9917 56.1667 62 56 62C55.9333 62 55.55 61.95 54.85 61.85L44.85 71.85C44.9167 72.1167 44.9583 72.3333 44.975 72.5C44.9917 72.6667 45 72.8333 45 73C45 73.9667 44.6583 74.7917 43.975 75.475C43.2917 76.1583 42.4667 76.5 41.5 76.5ZM44 54.4L43 52.2L40.8 51.2L43 50.2L44 48L45 50.2L47.2 51.2L45 52.2L44 54.4ZM66 51.85L64.45 48.55L61.15 47L64.45 45.45L66 42.15L67.55 45.45L70.85 47L67.55 48.55L66 51.85Z" fill="#B39DDB"/>
</g>
<defs>
<clipPath id="clip0_42_94">
<rect width="48" height="48" fill="white" transform="translate(36 36)"/>
</clipPath>
</defs>
</svg>
