<svg width="268" height="60" viewBox="0 0 268 60" fill="none" xmlns="http://www.w3.org/2000/svg">
<path d="M238 57.5C233.333 57.5 228.833 56.125 224.5 53.375C220.167 50.625 216.75 47.4792 214.25 43.9375V50H210.5V37.5H223V41.25H216.938C219.062 44.4583 222.094 47.3438 226.031 49.9062C229.969 52.4688 233.958 53.75 238 53.75C241.25 53.75 244.323 53.125 247.219 51.875C250.115 50.625 252.635 48.9271 254.781 46.7812C256.927 44.6354 258.625 42.1146 259.875 39.2188C261.125 36.3229 261.75 33.25 261.75 30H265.5C265.5 33.7917 264.781 37.3542 263.344 40.6875C261.906 44.0208 259.937 46.9375 257.437 49.4375C254.937 51.9375 252.021 53.9062 248.688 55.3438C245.354 56.7812 241.792 57.5 238 57.5ZM225.5 9.8125L223.5 6.625C225.625 5.29167 227.906 4.27083 230.344 3.5625C232.781 2.85417 235.333 2.5 238 2.5C242.667 2.5 247.167 3.875 251.5 6.625C255.833 9.375 259.25 12.5208 261.75 16.0625V10H265.5V22.5H253V18.75H259.062C256.937 15.5417 253.917 12.6562 250 10.0938C246.083 7.53125 242.083 6.25 238 6.25C235.708 6.25 233.51 6.5625 231.406 7.1875C229.302 7.8125 227.333 8.6875 225.5 9.8125ZM218 28.9375L215.312 22.6875L208.812 19.8125L215.312 17L218 11.0625L220.688 17L227.188 19.8125L220.688 22.6875L218 28.9375Z" fill="white"/>
<path d="M236.5 40.5V17.4783M253 49V25.9783M242 44.0217V21M247.5 42V18.9783" stroke="white" stroke-width="3"/>
<path d="M20.35 20.58L13.18 42H7.39L0.25 20.58H5.74L9.22 32.46C9.32 32.76 9.44 33.22 9.58 33.84C9.72 34.44 9.86 35.07 10 35.73C10.16 36.37 10.26 36.9 10.3 37.32C10.36 36.9 10.45 36.37 10.57 35.73C10.71 35.09 10.85 34.47 10.99 33.87C11.13 33.25 11.25 32.79 11.35 32.49L14.89 20.58H20.35ZM37.2517 33.72C37.2517 35.1 37.0617 36.32 36.6817 37.38C36.3217 38.44 35.7817 39.34 35.0617 40.08C34.3617 40.82 33.5117 41.38 32.5117 41.76C31.5317 42.12 30.4017 42.3 29.1217 42.3C27.9617 42.3 26.8817 42.12 25.8817 41.76C24.9017 41.38 24.0517 40.83 23.3317 40.11C22.6317 39.37 22.0817 38.47 21.6817 37.41C21.2817 36.33 21.0817 35.1 21.0817 33.72C21.0817 31.9 21.4017 30.36 22.0417 29.1C22.7017 27.84 23.6417 26.88 24.8617 26.22C26.0817 25.56 27.5317 25.23 29.2117 25.23C30.7917 25.23 32.1817 25.56 33.3817 26.22C34.5817 26.88 35.5217 27.84 36.2017 29.1C36.9017 30.36 37.2517 31.9 37.2517 33.72ZM26.2117 33.72C26.2117 34.74 26.3117 35.6 26.5117 36.3C26.7117 37 27.0317 37.53 27.4717 37.89C27.9117 38.23 28.4817 38.4 29.1817 38.4C29.9017 38.4 30.4717 38.23 30.8917 37.89C31.3117 37.53 31.6217 37 31.8217 36.3C32.0217 35.6 32.1217 34.74 32.1217 33.72C32.1217 32.7 32.0217 31.85 31.8217 31.17C31.6217 30.49 31.3017 29.98 30.8617 29.64C30.4417 29.3 29.8717 29.13 29.1517 29.13C28.1317 29.13 27.3817 29.52 26.9017 30.3C26.4417 31.06 26.2117 32.2 26.2117 33.72ZM45.8003 25.53V42H40.7603V25.53H45.8003ZM43.3103 18.99C44.0303 18.99 44.6603 19.15 45.2003 19.47C45.7403 19.79 46.0103 20.41 46.0103 21.33C46.0103 22.23 45.7403 22.85 45.2003 23.19C44.6603 23.51 44.0303 23.67 43.3103 23.67C42.5503 23.67 41.9003 23.51 41.3603 23.19C40.8403 22.85 40.5803 22.23 40.5803 21.33C40.5803 20.41 40.8403 19.79 41.3603 19.47C41.9003 19.15 42.5503 18.99 43.3103 18.99ZM57.2439 42.3C55.6039 42.3 54.1839 42.01 52.9839 41.43C51.8039 40.83 50.8939 39.91 50.2539 38.67C49.6339 37.41 49.3239 35.8 49.3239 33.84C49.3239 31.84 49.6739 30.21 50.3739 28.95C51.0939 27.67 52.0839 26.73 53.3439 26.13C54.6039 25.53 56.0439 25.23 57.6639 25.23C58.7439 25.23 59.7139 25.34 60.5739 25.56C61.4539 25.78 62.2339 26.06 62.9139 26.4L61.4439 30.21C60.7439 29.93 60.0939 29.7 59.4939 29.52C58.8939 29.34 58.2839 29.25 57.6639 29.25C56.9839 29.25 56.4039 29.42 55.9239 29.76C55.4439 30.08 55.0739 30.58 54.8139 31.26C54.5739 31.94 54.4539 32.79 54.4539 33.81C54.4539 34.83 54.5839 35.67 54.8439 36.33C55.1039 36.97 55.4739 37.45 55.9539 37.77C56.4339 38.09 57.0139 38.25 57.6939 38.25C58.5739 38.25 59.3939 38.12 60.1539 37.86C60.9339 37.6 61.6739 37.25 62.3739 36.81V40.95C61.6939 41.39 60.9539 41.73 60.1539 41.97C59.3539 42.19 58.3839 42.3 57.2439 42.3ZM73.0649 25.23C74.6249 25.23 75.9649 25.52 77.0849 26.1C78.2249 26.66 79.0949 27.5 79.6949 28.62C80.3149 29.72 80.6249 31.09 80.6249 32.73V35.07H70.2149C70.2549 36.15 70.6049 37.01 71.2649 37.65C71.9249 38.29 72.8649 38.61 74.0849 38.61C75.1449 38.61 76.1049 38.51 76.9649 38.31C77.8249 38.11 78.7149 37.79 79.6349 37.35V41.1C78.8349 41.52 77.9749 41.82 77.0549 42C76.1349 42.2 75.0049 42.3 73.6649 42.3C72.0049 42.3 70.5249 42 69.2249 41.4C67.9449 40.8 66.9349 39.88 66.1949 38.64C65.4749 37.38 65.1149 35.79 65.1149 33.87C65.1149 31.91 65.4449 30.3 66.1049 29.04C66.7649 27.76 67.6949 26.81 68.8949 26.19C70.0949 25.55 71.4849 25.23 73.0649 25.23ZM73.1549 28.74C72.3749 28.74 71.7249 28.99 71.2049 29.49C70.7049 29.97 70.4049 30.74 70.3049 31.8H75.9749C75.9749 31.22 75.8649 30.7 75.6449 30.24C75.4449 29.78 75.1349 29.42 74.7149 29.16C74.2949 28.88 73.7749 28.74 73.1549 28.74ZM119.454 20.58L114.084 42H108.144L105.654 31.65C105.594 31.43 105.524 31.11 105.444 30.69C105.364 30.25 105.264 29.77 105.144 29.25C105.044 28.71 104.954 28.2 104.874 27.72C104.794 27.22 104.734 26.82 104.694 26.52C104.654 26.82 104.584 27.22 104.484 27.72C104.404 28.2 104.314 28.71 104.214 29.25C104.114 29.77 104.014 30.25 103.914 30.69C103.834 31.11 103.764 31.43 103.704 31.65L101.184 42H95.2741L89.8741 20.58H94.8541L97.4041 31.83C97.4841 32.13 97.5741 32.53 97.6741 33.03C97.7741 33.51 97.8741 34.03 97.9741 34.59C98.0741 35.13 98.1641 35.66 98.2441 36.18C98.3441 36.68 98.4141 37.11 98.4541 37.47C98.5141 36.99 98.5941 36.44 98.6941 35.82C98.8141 35.2 98.9341 34.57 99.0541 33.93C99.1741 33.29 99.2941 32.69 99.4141 32.13C99.5341 31.57 99.6441 31.12 99.7441 30.78L102.294 20.58H107.064L109.614 30.78C109.674 31.12 109.764 31.57 109.884 32.13C110.024 32.69 110.154 33.3 110.274 33.96C110.414 34.6 110.534 35.23 110.634 35.85C110.734 36.47 110.814 37.01 110.874 37.47C110.934 36.97 111.024 36.37 111.144 35.67C111.284 34.95 111.424 34.24 111.564 33.54C111.704 32.82 111.824 32.26 111.924 31.86L114.474 20.58H119.454ZM128.618 25.2C130.758 25.2 132.418 25.7 133.598 26.7C134.778 27.68 135.368 29.14 135.368 31.08V42H131.858L130.868 39.78H130.748C130.288 40.36 129.808 40.84 129.308 41.22C128.828 41.6 128.268 41.87 127.628 42.03C127.008 42.21 126.238 42.3 125.318 42.3C124.358 42.3 123.488 42.11 122.708 41.73C121.948 41.35 121.348 40.77 120.908 39.99C120.468 39.21 120.248 38.22 120.248 37.02C120.248 35.26 120.858 33.96 122.078 33.12C123.318 32.28 125.128 31.81 127.508 31.71L130.328 31.62V31.14C130.328 30.34 130.118 29.76 129.698 29.4C129.298 29.04 128.738 28.86 128.018 28.86C127.298 28.86 126.548 28.98 125.768 29.22C124.988 29.44 124.198 29.72 123.398 30.06L121.868 26.7C122.768 26.22 123.788 25.85 124.928 25.59C126.068 25.33 127.298 25.2 128.618 25.2ZM128.798 34.56C127.538 34.6 126.658 34.83 126.158 35.25C125.658 35.65 125.408 36.2 125.408 36.9C125.408 37.52 125.588 37.97 125.948 38.25C126.308 38.53 126.768 38.67 127.328 38.67C128.168 38.67 128.878 38.42 129.458 37.92C130.038 37.4 130.328 36.7 130.328 35.82V34.5L128.798 34.56ZM144.707 42H139.637V19.2H144.707V42ZM154.111 42H149.041V19.2H154.111V42ZM165.555 25.23C167.115 25.23 168.455 25.52 169.575 26.1C170.715 26.66 171.585 27.5 172.185 28.62C172.805 29.72 173.115 31.09 173.115 32.73V35.07H162.705C162.745 36.15 163.095 37.01 163.755 37.65C164.415 38.29 165.355 38.61 166.575 38.61C167.635 38.61 168.595 38.51 169.455 38.31C170.315 38.11 171.205 37.79 172.125 37.35V41.1C171.325 41.52 170.465 41.82 169.545 42C168.625 42.2 167.495 42.3 166.155 42.3C164.495 42.3 163.015 42 161.715 41.4C160.435 40.8 159.425 39.88 158.685 38.64C157.965 37.38 157.605 35.79 157.605 33.87C157.605 31.91 157.935 30.3 158.595 29.04C159.255 27.76 160.185 26.81 161.385 26.19C162.585 25.55 163.975 25.23 165.555 25.23ZM165.645 28.74C164.865 28.74 164.215 28.99 163.695 29.49C163.195 29.97 162.895 30.74 162.795 31.8H168.465C168.465 31.22 168.355 30.7 168.135 30.24C167.935 29.78 167.625 29.42 167.205 29.16C166.785 28.88 166.265 28.74 165.645 28.74ZM183.991 38.28C184.511 38.28 184.991 38.23 185.431 38.13C185.871 38.03 186.321 37.9 186.781 37.74V41.46C186.241 41.7 185.621 41.9 184.921 42.06C184.221 42.22 183.391 42.3 182.431 42.3C181.411 42.3 180.501 42.14 179.701 41.82C178.921 41.48 178.301 40.91 177.841 40.11C177.401 39.29 177.181 38.16 177.181 36.72V29.31H175.081V27.21L177.601 25.59L178.981 22.11H182.221V25.53H186.601V29.31H182.221V36.54C182.221 37.12 182.381 37.56 182.701 37.86C183.021 38.14 183.451 38.28 183.991 38.28Z" fill="white"/>
</svg>
