<svg width="60" height="60" viewBox="0 0 60 60" fill="none" xmlns="http://www.w3.org/2000/svg">
<path d="M30 57.5C25.3333 57.5 20.8333 56.125 16.5 53.375C12.1667 50.625 8.75 47.4792 6.25 43.9375V50H2.5V37.5H15V41.25H8.9375C11.0625 44.4583 14.0938 47.3438 18.0312 49.9062C21.9688 52.4688 25.9583 53.75 30 53.75C33.25 53.75 36.3229 53.125 39.2188 51.875C42.1146 50.625 44.6354 48.9271 46.7812 46.7812C48.9271 44.6354 50.625 42.1146 51.875 39.2188C53.125 36.3229 53.75 33.25 53.75 30H57.5C57.5 33.7917 56.7812 37.3542 55.3438 40.6875C53.9062 44.0208 51.9375 46.9375 49.4375 49.4375C46.9375 51.9375 44.0208 53.9062 40.6875 55.3438C37.3542 56.7812 33.7917 57.5 30 57.5ZM17.5 9.8125L15.5 6.625C17.625 5.29167 19.9062 4.27083 22.3438 3.5625C24.7812 2.85417 27.3333 2.5 30 2.5C34.6667 2.5 39.1667 3.875 43.5 6.625C47.8333 9.375 51.25 12.5208 53.75 16.0625V10H57.5V22.5H45V18.75H51.0625C48.9375 15.5417 45.9167 12.6562 42 10.0938C38.0833 7.53125 34.0833 6.25 30 6.25C27.7083 6.25 25.5104 6.5625 23.4062 7.1875C21.3021 7.8125 19.3333 8.6875 17.5 9.8125ZM10 28.9375L7.3125 22.6875L0.8125 19.8125L7.3125 17L10 11.0625L12.6875 17L19.1875 19.8125L12.6875 22.6875L10 28.9375Z" fill="#7B89BC"/>
<path d="M28.5 40.5L28.5 17.4783M45 49L45 25.9783M34 44.0217L34 21M39.5 42L39.5 18.9783" stroke="#7B89BC" stroke-width="3"/>
</svg>
